<?xml version="1.0" standalone="no"?>
<!DOCTYPE svg PUBLIC "-//W3C//DTD SVG 20010904//EN"
 "http://www.w3.org/TR/2001/REC-SVG-20010904/DTD/svg10.dtd">
<svg version="1.0" xmlns="http://www.w3.org/2000/svg"
 width="273.000000pt" height="273.000000pt" viewBox="0 0 273.000000 273.000000"
 preserveAspectRatio="xMidYMid meet">
<metadata>
Created by potrace 1.14, written by Peter Selinger 2001-2017
</metadata>
<g transform="translate(0.000000,273.000000) scale(0.100000,-0.100000)"
fill="#000000" stroke="none">
<path d="M487 2189 c-43 -20 -51 -29 -81 -93 -29 -61 -58 -153 -72 -233 -2
-12 -34 -152 -70 -310 -36 -158 -68 -299 -70 -313 -3 -14 -7 -33 -10 -42 -3
-9 -6 -25 -9 -35 -2 -10 -19 -88 -38 -173 -20 -85 -38 -166 -40 -180 -5 -24
-16 -72 -57 -247 -31 -130 -49 -118 169 -118 104 0 192 2 194 5 3 3 7 19 10
35 3 17 30 143 60 280 30 138 61 279 69 315 l13 65 50 0 c28 0 49 -4 48 -10
-9 -59 -20 -107 -112 -504 -23 -96 -41 -177 -41 -180 0 -3 88 -6 195 -6 166 0
196 2 199 15 3 8 23 101 46 205 65 303 109 504 130 595 10 47 21 97 24 113 3
15 7 35 10 45 3 9 7 28 10 42 7 41 74 348 97 443 37 153 28 238 -28 277 l-36
25 -306 3 c-294 2 -308 1 -354 -19z m318 -341 c3 -3 -3 -45 -14 -94 -11 -49
-23 -105 -26 -124 -14 -83 -28 -120 -44 -121 -21 -2 -65 2 -69 6 -3 3 58 326
64 336 4 7 82 4 89 -3z"/>
<path d="M1414 2195 c-5 -14 -74 -333 -80 -370 -3 -16 -10 -48 -16 -70 -5 -22
-12 -51 -15 -65 -2 -14 -29 -140 -59 -280 -30 -140 -57 -266 -60 -280 -2 -14
-7 -36 -10 -50 -3 -14 -8 -36 -10 -50 -3 -14 -12 -54 -20 -90 -8 -36 -26 -119
-40 -185 -14 -66 -27 -127 -29 -135 -27 -123 -34 -164 -29 -169 3 -3 86 -6
185 -6 l180 0 5 25 c3 14 10 41 15 60 8 33 45 207 55 260 3 14 13 63 24 110
31 140 52 234 56 260 6 26 34 159 38 175 2 6 6 28 10 50 5 22 16 74 26 115 10
41 21 89 23 105 3 17 10 50 16 75 5 25 12 59 16 75 3 17 9 46 13 65 l8 34 57
-1 c32 0 60 -3 63 -6 3 -2 -11 -76 -30 -163 -111 -513 -169 -778 -186 -850
-11 -45 -22 -99 -26 -120 -3 -21 -8 -42 -10 -45 -2 -3 -6 -19 -8 -35 -11 -56
-16 -79 -27 -127 -6 -26 -8 -51 -4 -55 4 -4 87 -7 186 -7 l179 0 11 55 c6 30
35 165 64 300 30 135 56 256 59 270 6 32 53 251 105 490 22 102 42 196 44 210
16 84 13 82 92 82 67 0 64 4 50 -59 -7 -32 -29 -134 -50 -228 -20 -93 -39
-181 -41 -194 -3 -12 -12 -53 -20 -90 -9 -36 -18 -77 -21 -91 -2 -13 -36 -166
-74 -340 -38 -173 -72 -328 -75 -345 -13 -64 -26 -59 175 -60 211 0 187 -14
216 125 9 47 19 94 21 105 2 11 7 34 10 50 3 17 10 50 15 75 6 25 13 56 15 70
8 42 154 741 169 810 8 36 17 80 20 99 3 19 8 37 10 40 8 14 18 111 19 191 1
75 -2 89 -23 119 -13 18 -45 43 -70 54 -45 20 -61 21 -630 22 -385 0 -585 -3
-587 -10z"/>
</g>
</svg>
